<svg width="96" height="89" viewBox="0 0 96 89" fill="none" xmlns="http://www.w3.org/2000/svg">
<g clip-path="url(#clip0_383_599)">
<path d="M50.2617 11.7422C50.1211 11.8125 49.9453 12.0234 49.8633 12.2109C49.7344 12.5273 49.875 13.0547 51.7383 18.7617L53.7539 24.9726L53.7188 26.0156L53.6836 27.0703L52.0781 25.7812C51.1875 25.0664 50.4609 24.4336 50.4609 24.375C50.4609 24.3164 50.6719 23.9414 50.9297 23.5429C51.5625 22.5586 51.5508 22.0664 50.9063 21.7265C50.168 21.3515 50.0156 21.4804 48.2344 24.1172C46.4883 26.6836 46.3594 26.9882 46.8164 27.5507C46.9688 27.7382 47.1563 27.8203 47.4492 27.8203C47.9531 27.8203 48.1289 27.6797 48.7383 26.7773C48.9961 26.3906 49.2305 26.0507 49.2422 26.0273C49.2656 26.0039 50.2852 26.8007 51.5156 27.7851L53.7539 29.5898L53.7188 31.6523C53.6836 33.6562 53.6719 33.7265 53.3672 34.1836C52.8984 34.8867 52.4766 35.039 50.9414 35.039H49.6406V34.1718C49.6406 32.6015 49.0547 31.289 47.8359 30.1406C46.7461 29.1093 45.6563 28.7109 43.8867 28.7109H42.7383L42.7031 25.3359C42.6563 21.5039 42.6211 21.3164 41.7188 20.5312C40.5469 19.4882 38.9531 19.5468 37.8516 20.6718C37.1016 21.4336 36.9844 21.8789 36.9844 23.8359V25.3125H36.2813H35.5781V19.6406C35.5781 13.664 35.5664 13.5351 35.0273 12.8086C34.1719 11.6836 32.1328 11.6132 31.1719 12.6797C30.6563 13.2422 30.5156 13.6875 30.457 15.0937L30.3867 16.4531L26.5781 20.8476L22.7695 25.2539L21.8555 25.3125C20.3555 25.4179 20.4609 25.0781 20.4609 29.9648C20.4609 33.1757 20.4258 34.1132 20.3086 34.1484C20.2383 34.1836 20.0273 34.2304 19.8633 34.2656C19.3945 34.3711 18.8086 34.8164 18.4102 35.3672C18.0703 35.8711 18.0586 35.9062 18.0234 37.5117C17.9883 39.0937 17.9883 39.1523 18.3047 39.7265C18.9258 40.875 19.582 41.1562 21.4453 41.1093L22.8047 41.0742V41.3554C22.8047 41.8593 23.168 43.0546 23.5781 43.875C25.7344 48.1757 31.0078 49.664 35.1563 47.1445C36.1172 46.5586 37.1953 45.457 37.8047 44.4375C38.3203 43.5468 38.8594 42.0586 38.8594 41.4843V41.1328H48H57.1406V41.4843C57.1406 42.0586 57.6797 43.5468 58.1953 44.4375C58.8047 45.457 59.8828 46.5586 60.8438 47.1445C65.0039 49.664 70.2656 48.1757 72.4219 43.875C72.832 43.0546 73.1953 41.8593 73.1953 41.3554V41.0742L74.625 41.1093C76.043 41.1328 76.0781 41.1328 76.6758 40.7812C77.1328 40.5234 77.3906 40.2656 77.6484 39.8086C77.9883 39.2226 78 39.1523 78 37.6992C78 36.6914 77.9531 36.082 77.8359 35.8125C77.6016 35.25 77.0156 34.6406 76.4766 34.3945L76.0078 34.1836V31.9336C76.0078 29.4726 75.9258 29.039 75.3398 28.3007C75.1641 28.0781 74.8008 27.7734 74.5313 27.6328L74.0391 27.375L73.9922 26.4726C73.9336 25.3945 73.5586 24.6562 72.8203 24.164C72.3516 23.8593 72.2695 23.8476 70.5 23.8125L68.6602 23.7773L68.3906 24.1054C68.1094 24.4687 68.1328 24.9609 68.4727 25.3359C68.6367 25.5117 68.8477 25.5468 69.9141 25.5468C71.7773 25.5468 72.1406 25.7461 72.1406 26.7773V27.1875L65.6836 27.2109L59.2266 27.2461L58.9453 27.5742C58.6055 27.9726 58.582 28.3476 58.9102 28.7461L59.1445 29.0625L66.293 29.0859L73.4531 29.1211L73.793 29.5078L74.1328 29.8828V31.9804V34.0664L73.418 34.2656C72.8789 34.4062 72.5977 34.582 72.2227 34.9687L71.7188 35.4726L71.3789 35.0156C70.9102 34.3828 69.5859 33.3632 68.707 32.9414C64.9219 31.1484 60.3047 32.5078 58.2188 36.0468C57.6914 36.9375 57.1406 38.4492 57.1406 39.0117V39.375H48H38.8594V39.0351C38.8594 38.4843 38.3203 36.914 37.875 36.1875C36.7266 34.2773 35.7656 33.7031 35.1094 34.5468C34.7461 34.9922 34.8281 35.2851 35.5195 36.164C36.3398 37.1836 36.7266 37.9921 36.9609 39.1757C37.6055 42.4687 35.2148 45.832 31.8047 46.4062C28.5 46.9804 25.1953 44.5312 24.668 41.1093C24.0469 37.1601 27.7266 33.4804 31.6875 34.0781C32.9297 34.2656 33.1992 34.2539 33.4688 33.9843C33.7031 33.75 33.7734 33.2461 33.6328 32.8711C33.3516 32.1679 30.6914 31.9101 28.7227 32.414C27.2461 32.789 25.4063 33.9609 24.6211 35.0156L24.2813 35.4726L23.7891 34.9687C23.4961 34.6757 23.1094 34.4062 22.8164 34.3242L22.3359 34.1836V30.6796V27.1875H29.7188H37.0898L37.1602 27.5625C37.1953 27.7734 37.4063 29.3437 37.6289 31.0546C38.0977 34.6172 38.3086 35.25 39.2695 36.0351C40.3477 36.9257 40.2656 36.914 46.7695 36.914C52.207 36.914 52.6055 36.9023 53.1563 36.6914C54.0703 36.3398 54.7266 35.7422 55.1719 34.8281L55.5586 34.0429L55.5938 29.2968L55.6172 24.5507L53.8828 19.2187C52.9219 16.289 52.1602 13.8632 52.1719 13.8398C52.1953 13.8164 52.3945 13.9218 52.6172 14.0507C53.5313 14.625 53.8477 15.164 56.2383 20.2851C57.5156 23.0156 58.6523 25.3242 58.7578 25.3945C58.8984 25.5117 59.8359 25.5468 62.4961 25.5468C65.8945 25.5468 66.0586 25.5351 66.2813 25.3125C66.5625 25.0312 66.5859 24.4101 66.3281 24.0468C66.1523 23.789 66.1172 23.789 63.0703 23.789H59.9883L58.1953 19.9453C55.5938 14.3672 55.3828 13.9687 54.5625 13.1953C53.332 12.0234 51.1875 11.2968 50.2617 11.7422ZM33.2695 13.8398C33.4102 13.9218 33.5625 14.039 33.6094 14.1093C33.6563 14.1797 33.7031 16.7343 33.7031 19.7695V25.3125H33H32.2852L32.3203 19.7343L32.3555 14.1562L32.6367 13.9336C32.9531 13.6757 32.9414 13.6757 33.2695 13.8398ZM30.3867 25.2773C30.3633 25.3007 29.2031 25.3007 27.8203 25.289L25.3008 25.2539L27.832 22.3242L30.3633 19.3945L30.3984 22.3125C30.4102 23.9179 30.4102 25.2539 30.3867 25.2773ZM40.4648 21.9609L40.793 22.2422L40.8516 26.1679C40.8984 29.0625 40.9453 30.1289 41.0625 30.2578C41.168 30.3984 41.6016 30.4453 42.9961 30.5039C45.1055 30.5742 45.6328 30.7265 46.4766 31.4882C47.3086 32.2382 47.6719 33 47.7422 34.125L47.8008 35.039H44.543C40.8867 35.039 40.7109 35.0039 40.1836 34.207C39.9141 33.7968 39.832 33.3515 39.375 29.9765C38.9531 26.8359 38.8711 25.8632 38.8594 24.2812V22.3593L39.1992 22.0195C39.6211 21.5976 40.0195 21.5859 40.4648 21.9609ZM66.2344 34.1132C68.7656 34.5703 70.9102 36.7617 71.332 39.3632C71.8594 42.5625 69.4453 45.8437 66.1406 46.4062C63.375 46.8867 60.5039 45.2578 59.3789 42.5625C58.1836 39.7031 59.4844 36.2343 62.2852 34.7578C63.5977 34.0664 64.8516 33.8672 66.2344 34.1132ZM22.207 36.1523C22.6406 36.375 22.6875 36.5156 22.6875 37.7226C22.6875 38.6484 22.6641 38.7773 22.4063 39.0117C22.0313 39.3632 21.0352 39.4687 20.4375 39.2226C20.0977 39.082 19.9805 38.9531 19.8867 38.5898C19.5938 37.5468 19.8398 36.3164 20.3672 36.0937C20.7891 35.9297 21.8438 35.9531 22.207 36.1523ZM75.5977 36.0937C76.1602 36.3047 76.418 37.5117 76.1133 38.5898C76.0195 38.9531 75.9023 39.082 75.5625 39.2226C74.9648 39.4687 73.9688 39.3632 73.5938 39.0117C73.3359 38.7656 73.3125 38.6484 73.3125 37.6757C73.3125 36.5742 73.3828 36.3632 73.8398 36.1172C74.1328 35.9531 75.1875 35.9414 75.5977 36.0937Z" fill="#393939"/>
<path d="M63.7969 36.1289C62.6367 36.5625 61.8516 37.2539 61.2656 38.3554C60.9727 38.9179 60.9492 39.0703 60.9492 40.2539C60.9492 41.4961 60.9609 41.5664 61.3477 42.2812C61.8047 43.125 62.3789 43.6875 63.2578 44.1445C63.832 44.4492 63.9844 44.4726 65.168 44.4726C66.4219 44.4726 66.4805 44.4609 67.2187 44.0508C68.1328 43.5468 68.8477 42.7265 69.2109 41.7539C69.5742 40.7929 69.5156 39.3633 69.0703 38.414C68.6719 37.5586 67.8633 36.75 67.0078 36.3515C66.4687 36.0937 66.1406 36.0351 65.2852 36.0117C64.6172 35.9882 64.0781 36.0351 63.7969 36.1289ZM66.5391 38.2617C67.2656 38.7773 67.5937 39.4922 67.5469 40.3945C67.4648 41.7422 66.4805 42.6562 65.1094 42.6562C64.5469 42.6562 64.3359 42.5976 63.8672 42.2695C63.0937 41.7539 62.7656 41.1562 62.7656 40.2422C62.7656 39.6211 62.8242 39.4453 63.1523 38.9531C63.6914 38.1562 64.3594 37.8164 65.3086 37.875C65.8828 37.9101 66.1406 37.9922 66.5391 38.2617Z" fill="#393939"/>
<path d="M23.5078 28.5937C23.3672 28.7343 23.2734 28.9804 23.2734 29.2383C23.2734 29.4961 23.3672 29.7422 23.5078 29.8828C23.7305 30.1054 23.8945 30.1172 29.4258 30.1172C34.957 30.1172 35.1211 30.1054 35.3438 29.8828C35.4844 29.7422 35.5781 29.4961 35.5781 29.2383C35.5781 28.9804 35.4844 28.7343 35.3438 28.5937C35.1211 28.3711 34.957 28.3593 29.4258 28.3593C23.8945 28.3593 23.7305 28.3711 23.5078 28.5937Z" fill="#393939"/>
<path d="M71.8359 30.2109C71.6953 30.2344 71.4844 30.3515 71.3672 30.4922C71.1797 30.6914 71.1445 30.9258 71.1445 32.0742C71.1445 33.3515 71.1562 33.4336 71.4258 33.6445C71.7891 33.9375 72.4219 33.9375 72.7266 33.6328C72.9375 33.4219 72.9609 33.2461 72.9609 32.0742C72.9609 30.3984 72.7617 30.0703 71.8359 30.2109Z" fill="#393939"/>
<path d="M29.2265 36.2461C27.4218 37.0078 26.4843 38.4961 26.5781 40.4648C26.6484 42.1054 27.3867 43.3008 28.8046 44.0742C29.5195 44.4609 29.5898 44.4726 30.832 44.4726C32.0156 44.4726 32.1679 44.4492 32.7421 44.1445C33.621 43.6875 34.1953 43.125 34.6523 42.2812C35.039 41.5664 35.0507 41.4961 35.0507 40.2539C35.0507 39.0703 35.0273 38.9179 34.7226 38.3437C34.2538 37.4648 33.7031 36.8906 32.8593 36.4336C32.1913 36.082 32.0038 36.0351 31.0078 36.0117C30.0468 35.9765 29.8007 36.0117 29.2265 36.2461ZM31.957 38.1211C32.2734 38.2851 32.6249 38.6133 32.8593 38.9531C33.6328 40.1015 33.246 41.6367 32.0038 42.3633C31.5351 42.6445 31.371 42.6797 30.7148 42.6328C29.789 42.5742 29.1093 42.1523 28.6874 41.3672C28.289 40.6172 28.3593 39.5859 28.8398 38.8828C29.5429 37.8867 30.8906 37.5586 31.957 38.1211Z" fill="#393939"/>
</g>
<path d="M3.542 85L0.07 74.92H1.141L4.214 83.831L7.308 74.92H8.379L4.907 85H3.542ZM12.5642 85.21C11.8269 85.21 11.1876 85.0467 10.6462 84.72C10.1096 84.3933 9.6919 83.9337 9.39323 83.341C9.09457 82.7483 8.94523 82.053 8.94523 81.255C8.94523 80.429 9.09223 79.715 9.38623 79.113C9.68023 78.511 10.0932 78.0467 10.6252 77.72C11.1619 77.3933 11.7942 77.23 12.5222 77.23C13.2689 77.23 13.9059 77.4027 14.4332 77.748C14.9606 78.0887 15.3596 78.5787 15.6302 79.218C15.9009 79.8573 16.0246 80.6203 16.0012 81.507H14.9512V81.143C14.9326 80.163 14.7202 79.4233 14.3142 78.924C13.9129 78.4247 13.3249 78.175 12.5502 78.175C11.7382 78.175 11.1152 78.4387 10.6812 78.966C10.2519 79.4933 10.0372 80.2447 10.0372 81.22C10.0372 82.172 10.2519 82.9117 10.6812 83.439C11.1152 83.9617 11.7289 84.223 12.5222 84.223C13.0636 84.223 13.5349 84.0993 13.9362 83.852C14.3422 83.6 14.6619 83.2383 14.8952 82.767L15.8542 83.138C15.5556 83.796 15.1146 84.307 14.5312 84.671C13.9526 85.0303 13.2969 85.21 12.5642 85.21ZM9.67323 81.507V80.646H15.4482V81.507H9.67323ZM23.7847 85V81.143C23.7847 80.723 23.745 80.338 23.6657 79.988C23.5864 79.6333 23.458 79.3253 23.2807 79.064C23.108 78.798 22.8817 78.5927 22.6017 78.448C22.3264 78.3033 21.9904 78.231 21.5937 78.231C21.2297 78.231 20.9077 78.294 20.6277 78.42C20.3524 78.546 20.119 78.728 19.9277 78.966C19.741 79.1993 19.5987 79.484 19.5007 79.82C19.4027 80.156 19.3537 80.5387 19.3537 80.968L18.6257 80.807C18.6257 80.0323 18.761 79.3813 19.0317 78.854C19.3024 78.3267 19.6757 77.9277 20.1517 77.657C20.6277 77.3863 21.1737 77.251 21.7897 77.251C22.2424 77.251 22.6367 77.321 22.9727 77.461C23.3134 77.601 23.6004 77.79 23.8337 78.028C24.0717 78.266 24.263 78.539 24.4077 78.847C24.5524 79.1503 24.6574 79.4747 24.7227 79.82C24.788 80.1607 24.8207 80.5013 24.8207 80.842V85H23.7847ZM18.3177 85V74.92H19.2487V80.611H19.3537V85H18.3177ZM27.5472 76.005V74.85H28.5762V76.005H27.5472ZM27.5472 85V77.44H28.5762V85H27.5472ZM34.5808 85.21C33.8201 85.21 33.1761 85.0397 32.6488 84.699C32.1214 84.3583 31.7201 83.8893 31.4448 83.292C31.1741 82.69 31.0341 81.9993 31.0248 81.22C31.0341 80.4267 31.1788 79.7313 31.4588 79.134C31.7388 78.532 32.1424 78.0653 32.6698 77.734C33.1971 77.398 33.8364 77.23 34.5878 77.23C35.3531 77.23 36.0181 77.4167 36.5828 77.79C37.1521 78.1633 37.5418 78.6743 37.7518 79.323L36.7438 79.645C36.5664 79.1923 36.2841 78.8423 35.8968 78.595C35.5141 78.343 35.0754 78.217 34.5808 78.217C34.0254 78.217 33.5658 78.3453 33.2018 78.602C32.8378 78.854 32.5671 79.2063 32.3898 79.659C32.2124 80.1117 32.1214 80.632 32.1168 81.22C32.1261 82.1253 32.3361 82.8533 32.7468 83.404C33.1574 83.95 33.7688 84.223 34.5808 84.223C35.0941 84.223 35.5304 84.1063 35.8898 83.873C36.2538 83.635 36.5291 83.2897 36.7158 82.837L37.7518 83.145C37.4718 83.817 37.0611 84.3303 36.5198 84.685C35.9784 85.035 35.3321 85.21 34.5808 85.21ZM39.9016 85V74.71H40.9306V85H39.9016ZM46.9982 85.21C46.2609 85.21 45.6216 85.0467 45.0802 84.72C44.5436 84.3933 44.1259 83.9337 43.8272 83.341C43.5286 82.7483 43.3792 82.053 43.3792 81.255C43.3792 80.429 43.5262 79.715 43.8202 79.113C44.1142 78.511 44.5272 78.0467 45.0592 77.72C45.5959 77.3933 46.2282 77.23 46.9562 77.23C47.7029 77.23 48.3399 77.4027 48.8672 77.748C49.3946 78.0887 49.7936 78.5787 50.0642 79.218C50.3349 79.8573 50.4586 80.6203 50.4352 81.507H49.3852V81.143C49.3666 80.163 49.1542 79.4233 48.7482 78.924C48.3469 78.4247 47.7589 78.175 46.9842 78.175C46.1722 78.175 45.5492 78.4387 45.1152 78.966C44.6859 79.4933 44.4712 80.2447 44.4712 81.22C44.4712 82.172 44.6859 82.9117 45.1152 83.439C45.5492 83.9617 46.1629 84.223 46.9562 84.223C47.4976 84.223 47.9689 84.0993 48.3702 83.852C48.7762 83.6 49.0959 83.2383 49.3292 82.767L50.2882 83.138C49.9896 83.796 49.5486 84.307 48.9652 84.671C48.3866 85.0303 47.7309 85.21 46.9982 85.21ZM44.1072 81.507V80.646H49.8822V81.507H44.1072ZM59.1524 85.203C58.2657 85.203 57.5354 85.0117 56.9614 84.629C56.3921 84.2463 56.0421 83.7143 55.9114 83.033L56.9614 82.858C57.0734 83.2873 57.3277 83.6303 57.7244 83.887C58.1257 84.139 58.6204 84.265 59.2084 84.265C59.7824 84.265 60.2351 84.146 60.5664 83.908C60.8977 83.6653 61.0634 83.3363 61.0634 82.921C61.0634 82.6877 61.0097 82.4987 60.9024 82.354C60.7997 82.2047 60.5874 82.067 60.2654 81.941C59.9434 81.815 59.4627 81.6657 58.8234 81.493C58.1374 81.3063 57.6007 81.1197 57.2134 80.933C56.8261 80.7463 56.5507 80.5317 56.3874 80.289C56.2241 80.0417 56.1424 79.7407 56.1424 79.386C56.1424 78.9567 56.2637 78.581 56.5064 78.259C56.7491 77.9323 57.0851 77.6803 57.5144 77.503C57.9437 77.321 58.4431 77.23 59.0124 77.23C59.5817 77.23 60.0904 77.3233 60.5384 77.51C60.9911 77.692 61.3551 77.9487 61.6304 78.28C61.9057 78.6113 62.0691 78.9963 62.1204 79.435L61.0704 79.624C61.0004 79.1807 60.7787 78.8307 60.4054 78.574C60.0367 78.3127 59.5677 78.1773 58.9984 78.168C58.4617 78.154 58.0254 78.2567 57.6894 78.476C57.3534 78.6907 57.1854 78.9777 57.1854 79.337C57.1854 79.5377 57.2461 79.7103 57.3674 79.855C57.4887 79.995 57.7081 80.128 58.0254 80.254C58.3474 80.38 58.8047 80.5177 59.3974 80.667C60.0927 80.8443 60.6387 81.031 61.0354 81.227C61.4321 81.423 61.7144 81.654 61.8824 81.92C62.0504 82.186 62.1344 82.515 62.1344 82.907C62.1344 83.621 61.8684 84.1833 61.3364 84.594C60.8091 85 60.0811 85.203 59.1524 85.203ZM66.6199 85.21C66.0505 85.21 65.5722 85.1073 65.1849 84.902C64.8022 84.6967 64.5152 84.4237 64.3239 84.083C64.1325 83.7423 64.0369 83.3713 64.0369 82.97C64.0369 82.5593 64.1185 82.2093 64.2819 81.92C64.4499 81.626 64.6762 81.3857 64.9609 81.199C65.2502 81.0123 65.5839 80.87 65.9619 80.772C66.3445 80.6787 66.7669 80.597 67.2289 80.527C67.6955 80.4523 68.1505 80.3893 68.5939 80.338C69.0419 80.282 69.4339 80.2283 69.7699 80.177L69.4059 80.401C69.4199 79.6543 69.2752 79.1013 68.9719 78.742C68.6685 78.3827 68.1412 78.203 67.3899 78.203C66.8719 78.203 66.4332 78.3197 66.0739 78.553C65.7192 78.7863 65.4695 79.155 65.3249 79.659L64.3239 79.365C64.4965 78.6883 64.8442 78.1633 65.3669 77.79C65.8895 77.4167 66.5685 77.23 67.4039 77.23C68.0945 77.23 68.6802 77.3607 69.1609 77.622C69.6462 77.8787 69.9892 78.252 70.1899 78.742C70.2832 78.9613 70.3439 79.2063 70.3719 79.477C70.3999 79.7477 70.4139 80.023 70.4139 80.303V85H69.4969V83.103L69.7629 83.215C69.5062 83.8637 69.1072 84.3583 68.5659 84.699C68.0245 85.0397 67.3759 85.21 66.6199 85.21ZM66.7389 84.321C67.2195 84.321 67.6395 84.2347 67.9989 84.062C68.3582 83.8893 68.6475 83.6537 68.8669 83.355C69.0862 83.0517 69.2285 82.711 69.2939 82.333C69.3499 82.0903 69.3802 81.8243 69.3849 81.535C69.3895 81.241 69.3919 81.0217 69.3919 80.877L69.7839 81.08C69.4339 81.1267 69.0535 81.1733 68.6429 81.22C68.2369 81.2667 67.8355 81.3203 67.4389 81.381C67.0469 81.4417 66.6922 81.514 66.3749 81.598C66.1602 81.6587 65.9525 81.745 65.7519 81.857C65.5512 81.9643 65.3855 82.109 65.2549 82.291C65.1289 82.473 65.0659 82.6993 65.0659 82.97C65.0659 83.1893 65.1195 83.4017 65.2269 83.607C65.3389 83.8123 65.5162 83.9827 65.7589 84.118C66.0062 84.2533 66.3329 84.321 66.7389 84.321ZM73.7552 85V76.88C73.7552 76.684 73.7645 76.4903 73.7832 76.299C73.8065 76.1077 73.8508 75.9257 73.9162 75.753C73.9815 75.5757 74.0842 75.4123 74.2242 75.263C74.3782 75.095 74.5462 74.9737 74.7282 74.899C74.9102 74.8197 75.0992 74.7683 75.2952 74.745C75.4958 74.7217 75.6918 74.71 75.8832 74.71H76.8492V75.578H75.9532C75.5612 75.578 75.2672 75.6737 75.0712 75.865C74.8798 76.0563 74.7842 76.3573 74.7842 76.768V85H73.7552ZM72.4462 78.322V77.44H76.8492V78.322H72.4462ZM80.697 85.21C80.1277 85.21 79.6493 85.1073 79.262 84.902C78.8793 84.6967 78.5923 84.4237 78.401 84.083C78.2097 83.7423 78.114 83.3713 78.114 82.97C78.114 82.5593 78.1957 82.2093 78.359 81.92C78.527 81.626 78.7533 81.3857 79.038 81.199C79.3273 81.0123 79.661 80.87 80.039 80.772C80.4217 80.6787 80.844 80.597 81.306 80.527C81.7727 80.4523 82.2277 80.3893 82.671 80.338C83.119 80.282 83.511 80.2283 83.847 80.177L83.483 80.401C83.497 79.6543 83.3523 79.1013 83.049 78.742C82.7457 78.3827 82.2183 78.203 81.467 78.203C80.949 78.203 80.5103 78.3197 80.151 78.553C79.7963 78.7863 79.5467 79.155 79.402 79.659L78.401 79.365C78.5737 78.6883 78.9213 78.1633 79.444 77.79C79.9667 77.4167 80.6457 77.23 81.481 77.23C82.1717 77.23 82.7573 77.3607 83.238 77.622C83.7233 77.8787 84.0663 78.252 84.267 78.742C84.3603 78.9613 84.421 79.2063 84.449 79.477C84.477 79.7477 84.491 80.023 84.491 80.303V85H83.574V83.103L83.84 83.215C83.5833 83.8637 83.1843 84.3583 82.643 84.699C82.1017 85.0397 81.453 85.21 80.697 85.21ZM80.816 84.321C81.2967 84.321 81.7167 84.2347 82.076 84.062C82.4353 83.8893 82.7247 83.6537 82.944 83.355C83.1633 83.0517 83.3057 82.711 83.371 82.333C83.427 82.0903 83.4573 81.8243 83.462 81.535C83.4667 81.241 83.469 81.0217 83.469 80.877L83.861 81.08C83.511 81.1267 83.1307 81.1733 82.72 81.22C82.314 81.2667 81.9127 81.3203 81.516 81.381C81.124 81.4417 80.7693 81.514 80.452 81.598C80.2373 81.6587 80.0297 81.745 79.829 81.857C79.6283 81.9643 79.4627 82.109 79.332 82.291C79.206 82.473 79.143 82.6993 79.143 82.97C79.143 83.1893 79.1967 83.4017 79.304 83.607C79.416 83.8123 79.5933 83.9827 79.836 84.118C80.0833 84.2533 80.41 84.321 80.816 84.321ZM87.0833 85V77.44H88.0073V79.26L87.8253 79.022C87.9093 78.798 88.0189 78.5927 88.1543 78.406C88.2896 78.2147 88.4366 78.0583 88.5953 77.937C88.7913 77.7643 89.0199 77.6337 89.2813 77.545C89.5426 77.4517 89.8063 77.398 90.0723 77.384C90.3383 77.3653 90.5809 77.384 90.8003 77.44V78.406C90.5249 78.336 90.2239 78.3197 89.8973 78.357C89.5706 78.3943 89.2696 78.525 88.9943 78.749C88.7423 78.945 88.5533 79.1807 88.4273 79.456C88.3013 79.7267 88.2173 80.016 88.1753 80.324C88.1333 80.6273 88.1123 80.9283 88.1123 81.227V85H87.0833ZM93.0382 76.005V74.85H94.0672V76.005H93.0382ZM93.0382 85V77.44H94.0672V85H93.0382Z" fill="#393939"/>
<defs>
<clipPath id="clip0_383_599">
<rect width="60" height="60" fill="white" transform="translate(18)"/>
</clipPath>
</defs>
</svg>
