<svg width="63" height="89" viewBox="0 0 63 89" fill="none" xmlns="http://www.w3.org/2000/svg">
<g clip-path="url(#clip0_383_623)">
<path d="M23.043 7.34766C22.8086 7.58204 20.125 13.0547 14.2539 25.3008C6.14451 42.1992 5.6992 43.1016 3.43748 47.0391C0.765606 51.7031 0.671856 51.9609 1.32811 52.6172C1.7617 53.0508 2.44139 53.0977 2.91014 52.7344C3.0742 52.6055 3.75389 51.5391 4.42186 50.3789L5.62889 48.2578L5.66404 50.3086C5.68748 52.3359 5.6992 52.3594 6.00389 52.6641L6.30858 52.9688H33.3437H60.3789L60.6953 52.6524L61.0117 52.3477L60.9765 47.6484L60.9414 42.9492L51.9297 25.3125C46.082 13.8399 42.8125 7.5586 42.5898 7.34766C42.1328 6.92579 41.6172 6.93751 40.4336 7.39454C35.7109 9.25782 31.7265 9.26954 25.5976 7.44141C23.9219 6.93751 23.5 6.92579 23.043 7.34766ZM49.5273 26.1328L57.8008 42.3633L49.8906 42.3984C45.5312 42.4102 41.9336 42.3867 41.8867 42.3399C41.7812 42.2227 29.4765 16.957 29.5117 16.9219C29.5234 16.8984 29.9336 16.9688 30.414 17.0625C31.668 17.2969 32.2422 17.2734 32.5234 16.9922C32.8984 16.6172 33.0156 16.207 32.875 15.7149C32.7226 15.1289 32.3594 14.9414 30.6953 14.5899C29.2656 14.2852 28.0703 13.9922 28.0234 13.9219C28 13.8984 27.5898 13.0547 27.0976 12.0352C26.4531 10.6875 26.2539 10.1953 26.4062 10.2422C28.5273 10.8633 30.414 11.1563 32.8164 11.2149C35.6875 11.2969 37.6445 11.0039 40.082 10.1484C40.539 9.98438 40.9844 9.8672 41.0781 9.87891C41.1836 9.89063 44.5 16.2656 49.5273 26.1328ZM22.5625 36.5625C22.4922 36.5977 20.8281 36.9375 18.8359 37.3242C14.9336 38.0625 14.7812 38.0977 14.3945 38.4609L14.125 38.707V44.6719V50.625H11.0781H8.03123V47.3203V44.0274L15.3203 28.8281L22.6211 13.6406L22.6562 25.0664C22.668 32.6719 22.6445 36.5156 22.5625 36.5625ZM32.7461 29.3086L39.9062 44.0274V47.332V50.625H36.7422H33.5781V44.8477V39.0586L33.3203 38.8242C32.8984 38.4375 32.7695 38.4024 28.8086 37.4883L25.0234 36.6211V25.0781L25.0351 13.5352L25.3047 14.0625C25.457 14.3555 28.8086 21.2109 32.7461 29.3086ZM21.25 39.4805C21.2383 39.5391 20.1601 41.332 18.8711 43.4649L16.5273 47.3438L16.4922 43.875C16.4805 41.9531 16.4922 40.3711 16.5273 40.3359C16.5859 40.2774 20.7695 39.4219 21.1328 39.3867C21.2265 39.3867 21.2734 39.4219 21.25 39.4805ZM28.9844 40.0899L31.2344 40.6055V43.9922C31.2344 45.8555 31.2109 47.3555 31.1875 47.332C30.9414 47.0742 26.4531 39.4688 26.5703 39.5156C26.6523 39.5508 27.7422 39.7969 28.9844 40.0899ZM27.0156 45.2461C28.7265 48.0938 30.1445 50.4609 30.1562 50.5195C30.1797 50.5781 27.5312 50.625 23.8515 50.625C20.1719 50.625 17.5234 50.5781 17.5469 50.5195C17.6289 50.2852 23.793 40.0899 23.8515 40.0899C23.8867 40.0899 25.3047 42.4102 27.0156 45.2461ZM58.6562 47.6953V50.625H53.3594L48.0508 50.6133L45.8828 47.8008C44.6875 46.2422 43.7031 44.9297 43.6797 44.8711C43.6562 44.8125 46.7969 44.7656 51.1445 44.7656H58.6562V47.6953ZM43.6328 48.9375C44.289 49.793 44.8281 50.5195 44.8281 50.5547C44.8281 50.5899 44.2539 50.625 43.539 50.625H42.25V48.9024C42.25 47.9531 42.2969 47.2266 42.3437 47.2852C42.4023 47.3555 42.9883 48.0938 43.6328 48.9375Z" fill="#393939"/>
<path d="M35.5586 15.4571C34.9023 16.125 35.2188 17.3203 36.0977 17.4844C37.3516 17.7305 38.125 16.2891 37.2109 15.4336C36.707 14.9766 36.0273 14.9883 35.5586 15.4571Z" fill="#393939"/>
</g>
<path d="M5.061 85.21C4.05767 85.21 3.21067 84.9883 2.52 84.545C1.82933 84.097 1.30667 83.4787 0.952 82.69C0.597333 81.9013 0.42 80.9913 0.42 79.96C0.42 78.9287 0.597333 78.0187 0.952 77.23C1.30667 76.4413 1.82933 75.8253 2.52 75.382C3.21067 74.934 4.05767 74.71 5.061 74.71C6.23233 74.71 7.189 75.011 7.931 75.613C8.673 76.2103 9.18167 77.013 9.457 78.021L8.407 78.294C8.19233 77.496 7.80733 76.8637 7.252 76.397C6.69667 75.9303 5.96633 75.697 5.061 75.697C4.27233 75.697 3.61667 75.8767 3.094 76.236C2.57133 76.5953 2.177 77.097 1.911 77.741C1.64967 78.3803 1.51433 79.12 1.505 79.96C1.50033 80.8 1.62867 81.5397 1.89 82.179C2.156 82.8183 2.55267 83.32 3.08 83.684C3.612 84.0433 4.27233 84.223 5.061 84.223C5.96633 84.223 6.69667 83.9897 7.252 83.523C7.80733 83.0517 8.19233 82.4193 8.407 81.626L9.457 81.899C9.18167 82.907 8.673 83.712 7.931 84.314C7.189 84.9113 6.23233 85.21 5.061 85.21ZM13.9345 85.21C13.3652 85.21 12.8868 85.1073 12.4995 84.902C12.1168 84.6967 11.8298 84.4237 11.6385 84.083C11.4472 83.7423 11.3515 83.3713 11.3515 82.97C11.3515 82.5593 11.4332 82.2093 11.5965 81.92C11.7645 81.626 11.9908 81.3857 12.2755 81.199C12.5648 81.0123 12.8985 80.87 13.2765 80.772C13.6592 80.6787 14.0815 80.597 14.5435 80.527C15.0102 80.4523 15.4652 80.3893 15.9085 80.338C16.3565 80.282 16.7485 80.2283 17.0845 80.177L16.7205 80.401C16.7345 79.6543 16.5898 79.1013 16.2865 78.742C15.9832 78.3827 15.4558 78.203 14.7045 78.203C14.1865 78.203 13.7478 78.3197 13.3885 78.553C13.0338 78.7863 12.7842 79.155 12.6395 79.659L11.6385 79.365C11.8112 78.6883 12.1588 78.1633 12.6815 77.79C13.2042 77.4167 13.8832 77.23 14.7185 77.23C15.4092 77.23 15.9948 77.3607 16.4755 77.622C16.9608 77.8787 17.3038 78.252 17.5045 78.742C17.5978 78.9613 17.6585 79.2063 17.6865 79.477C17.7145 79.7477 17.7285 80.023 17.7285 80.303V85H16.8115V83.103L17.0775 83.215C16.8208 83.8637 16.4218 84.3583 15.8805 84.699C15.3392 85.0397 14.6905 85.21 13.9345 85.21ZM14.0535 84.321C14.5342 84.321 14.9542 84.2347 15.3135 84.062C15.6728 83.8893 15.9622 83.6537 16.1815 83.355C16.4008 83.0517 16.5432 82.711 16.6085 82.333C16.6645 82.0903 16.6948 81.8243 16.6995 81.535C16.7042 81.241 16.7065 81.0217 16.7065 80.877L17.0985 81.08C16.7485 81.1267 16.3682 81.1733 15.9575 81.22C15.5515 81.2667 15.1502 81.3203 14.7535 81.381C14.3615 81.4417 14.0068 81.514 13.6895 81.598C13.4748 81.6587 13.2672 81.745 13.0665 81.857C12.8658 81.9643 12.7002 82.109 12.5695 82.291C12.4435 82.473 12.3805 82.6993 12.3805 82.97C12.3805 83.1893 12.4342 83.4017 12.5415 83.607C12.6535 83.8123 12.8308 83.9827 13.0735 84.118C13.3208 84.2533 13.6475 84.321 14.0535 84.321ZM29.3368 85L29.3438 80.037C29.3438 79.4537 29.1804 78.9963 28.8538 78.665C28.5318 78.329 28.1211 78.161 27.6218 78.161C27.3371 78.161 27.0594 78.2263 26.7888 78.357C26.5181 78.4877 26.2941 78.6977 26.1168 78.987C25.9441 79.2763 25.8578 79.6543 25.8578 80.121L25.2488 79.946C25.2348 79.4047 25.3398 78.931 25.5638 78.525C25.7924 78.119 26.1051 77.804 26.5018 77.58C26.9031 77.3513 27.3558 77.237 27.8598 77.237C28.6204 77.237 29.2294 77.4727 29.6868 77.944C30.1441 78.4107 30.3728 79.043 30.3728 79.841L30.3658 85H29.3368ZM20.3138 85V77.44H21.2378V79.302H21.3498V85H20.3138ZM24.8358 85L24.8428 80.107C24.8428 79.505 24.6818 79.0313 24.3598 78.686C24.0424 78.336 23.6224 78.161 23.0998 78.161C22.5771 78.161 22.1548 78.3407 21.8328 78.7C21.5108 79.0547 21.3498 79.5283 21.3498 80.121L20.7338 79.785C20.7338 79.2997 20.8481 78.8657 21.0768 78.483C21.3054 78.0957 21.6181 77.7923 22.0148 77.573C22.4114 77.349 22.8618 77.237 23.3658 77.237C23.8464 77.237 24.2734 77.3397 24.6468 77.545C25.0248 77.7503 25.3211 78.049 25.5358 78.441C25.7504 78.833 25.8578 79.309 25.8578 79.869L25.8508 85H24.8358ZM36.353 85.21C35.6576 85.21 35.0696 85.035 34.589 84.685C34.1083 84.3303 33.7443 83.852 33.497 83.25C33.2496 82.6433 33.126 81.9643 33.126 81.213C33.126 80.4477 33.2496 79.7663 33.497 79.169C33.749 78.567 34.1176 78.0933 34.603 77.748C35.0883 77.4027 35.6856 77.23 36.395 77.23C37.0856 77.23 37.6783 77.405 38.173 77.755C38.6676 78.105 39.0456 78.581 39.307 79.183C39.573 79.785 39.706 80.4617 39.706 81.213C39.706 81.969 39.573 82.648 39.307 83.25C39.041 83.852 38.6583 84.3303 38.159 84.685C37.6596 85.035 37.0576 85.21 36.353 85.21ZM32.951 88.36V77.44H33.875V83.131H33.987V88.36H32.951ZM36.248 84.251C36.7753 84.251 37.214 84.118 37.564 83.852C37.914 83.586 38.1753 83.2243 38.348 82.767C38.5253 82.305 38.614 81.787 38.614 81.213C38.614 80.6437 38.5276 80.1303 38.355 79.673C38.1823 79.2157 37.9186 78.854 37.564 78.588C37.214 78.322 36.7683 78.189 36.227 78.189C35.6996 78.189 35.261 78.3173 34.911 78.574C34.5656 78.8307 34.3066 79.1877 34.134 79.645C33.9613 80.0977 33.875 80.6203 33.875 81.213C33.875 81.7963 33.9613 82.319 34.134 82.781C34.3066 83.2383 34.568 83.5977 34.918 83.859C35.268 84.1203 35.7113 84.251 36.248 84.251ZM42.1531 76.005V74.85H43.1821V76.005H42.1531ZM42.1531 85V77.44H43.1821V85H42.1531ZM51.5107 85V81.143C51.5107 80.723 51.471 80.338 51.3917 79.988C51.3124 79.6333 51.184 79.3253 51.0067 79.064C50.834 78.798 50.6077 78.5927 50.3277 78.448C50.0524 78.3033 49.7164 78.231 49.3197 78.231C48.9557 78.231 48.6337 78.294 48.3537 78.42C48.0784 78.546 47.845 78.728 47.6537 78.966C47.467 79.1993 47.3247 79.484 47.2267 79.82C47.1287 80.156 47.0797 80.5387 47.0797 80.968L46.3517 80.807C46.3517 80.0323 46.487 79.3813 46.7577 78.854C47.0284 78.3267 47.4017 77.9277 47.8777 77.657C48.3537 77.3863 48.8997 77.251 49.5157 77.251C49.9684 77.251 50.3627 77.321 50.6987 77.461C51.0394 77.601 51.3264 77.79 51.5597 78.028C51.7977 78.266 51.989 78.539 52.1337 78.847C52.2784 79.1503 52.3834 79.4747 52.4487 79.82C52.514 80.1607 52.5467 80.5013 52.5467 80.842V85H51.5107ZM46.0437 85V77.44H46.9747V79.302H47.0797V85H46.0437ZM58.1362 88.57C57.7489 88.57 57.3662 88.5117 56.9882 88.395C56.6149 88.283 56.2695 88.1033 55.9522 87.856C55.6349 87.6133 55.3689 87.296 55.1542 86.904L56.0852 86.386C56.2952 86.806 56.5892 87.107 56.9672 87.289C57.3499 87.4757 57.7395 87.569 58.1362 87.569C58.6822 87.569 59.1232 87.4663 59.4592 87.261C59.7999 87.0603 60.0472 86.7617 60.2012 86.365C60.3552 85.9683 60.4299 85.4737 60.4252 84.881V82.865H60.5442V77.44H61.4612V84.895C61.4612 85.1097 61.4542 85.315 61.4402 85.511C61.4309 85.7117 61.4099 85.9077 61.3772 86.099C61.2885 86.6637 61.1042 87.128 60.8242 87.492C60.5489 87.856 60.1849 88.1267 59.7322 88.304C59.2842 88.4813 58.7522 88.57 58.1362 88.57ZM58.0662 85.21C57.3615 85.21 56.7595 85.035 56.2602 84.685C55.7609 84.3303 55.3782 83.852 55.1122 83.25C54.8462 82.648 54.7132 81.969 54.7132 81.213C54.7132 80.4617 54.8439 79.785 55.1052 79.183C55.3712 78.581 55.7515 78.105 56.2462 77.755C56.7409 77.405 57.3335 77.23 58.0242 77.23C58.7335 77.23 59.3309 77.4027 59.8162 77.748C60.3015 78.0933 60.6679 78.567 60.9152 79.169C61.1672 79.7663 61.2932 80.4477 61.2932 81.213C61.2932 81.9643 61.1695 82.6433 60.9222 83.25C60.6749 83.852 60.3109 84.3303 59.8302 84.685C59.3495 85.035 58.7615 85.21 58.0662 85.21ZM58.1712 84.251C58.7079 84.251 59.1512 84.1203 59.5012 83.859C59.8512 83.5977 60.1125 83.2383 60.2852 82.781C60.4579 82.319 60.5442 81.7963 60.5442 81.213C60.5442 80.6203 60.4579 80.0977 60.2852 79.645C60.1125 79.1877 59.8512 78.8307 59.5012 78.574C59.1559 78.3173 58.7195 78.189 58.1922 78.189C57.6509 78.189 57.2029 78.322 56.8482 78.588C56.4935 78.854 56.2299 79.2157 56.0572 79.673C55.8892 80.1303 55.8052 80.6437 55.8052 81.213C55.8052 81.787 55.8915 82.305 56.0642 82.767C56.2415 83.2243 56.5052 83.586 56.8552 83.852C57.2052 84.118 57.6439 84.251 58.1712 84.251Z" fill="#393939"/>
<defs>
<clipPath id="clip0_383_623">
<rect width="60" height="60" fill="white" transform="translate(1)"/>
</clipPath>
</defs>
</svg>
