<svg width="715" height="118" viewBox="0 0 715 118" fill="none" xmlns="http://www.w3.org/2000/svg">
<mask id="path-1-outside-1_715_469" maskUnits="userSpaceOnUse" x="-0.312439" y="-0.219482" width="716" height="118" fill="black">
<rect fill="white" x="-0.312439" y="-0.219482" width="716" height="118"/>
<path d="M1.68756 114V4.07071H73.447V23.461H22.452V46.9737H64.2862V66.364H22.452V94.6098H73.447V114H1.68756ZM90.9813 114L127.93 58.4247L92.0501 4.07071H117.548L140.908 40.7138L163.962 4.07071H189.612L153.733 58.4247L190.529 114H165.031L140.908 76.1355L116.632 114H90.9813ZM211.121 114V4.07071H257.536C258.605 4.07071 260.03 4.1216 261.811 4.22339C263.643 4.27428 265.272 4.42697 266.697 4.68143C273.262 5.6993 278.631 7.86226 282.804 11.1703C287.028 14.4784 290.133 18.6516 292.118 23.6901C294.103 28.6776 295.095 34.2504 295.095 40.4085C295.095 46.5666 294.077 52.1648 292.041 57.2033C290.057 62.1908 286.952 66.3386 282.728 69.6467C278.555 72.9547 273.211 75.1177 266.697 76.1355C265.272 76.3391 263.643 76.4918 261.811 76.5936C259.979 76.6954 258.554 76.7463 257.536 76.7463H231.886V114H211.121ZM231.886 57.3559H256.62C257.689 57.3559 258.859 57.305 260.131 57.2033C261.404 57.1015 262.574 56.8979 263.643 56.5925C266.442 55.8291 268.605 54.5568 270.132 52.7755C271.659 50.9434 272.702 48.9331 273.262 46.7447C273.873 44.5054 274.178 42.3933 274.178 40.4085C274.178 38.4236 273.873 36.337 273.262 34.1486C272.702 31.9093 271.659 29.899 270.132 28.1178C268.605 26.2856 266.442 24.9878 263.643 24.2244C262.574 23.9191 261.404 23.7155 260.131 23.6137C258.859 23.5119 257.689 23.461 256.62 23.461H231.886V57.3559ZM320.347 114V4.07071H341.111V94.6098H388.442V114H320.347ZM454.016 116.29C443.023 116.29 433.531 113.898 425.541 109.114C417.601 104.33 411.469 97.6379 407.143 89.037C402.868 80.436 400.73 70.4355 400.73 59.0354C400.73 47.6353 402.868 37.6348 407.143 29.0338C411.469 20.4329 417.601 13.7404 425.541 8.95646C433.531 4.1725 443.023 1.78052 454.016 1.78052C465.009 1.78052 474.475 4.1725 482.414 8.95646C490.404 13.7404 496.537 20.4329 500.812 29.0338C505.138 37.6348 507.301 47.6353 507.301 59.0354C507.301 70.4355 505.138 80.436 500.812 89.037C496.537 97.6379 490.404 104.33 482.414 109.114C474.475 113.898 465.009 116.29 454.016 116.29ZM454.016 96.7473C460.988 96.8491 466.79 95.3477 471.421 92.2432C476.052 89.1388 479.513 84.7365 481.803 79.0365C484.144 73.3364 485.315 66.6694 485.315 59.0354C485.315 51.4014 484.144 44.7853 481.803 39.187C479.513 33.5888 476.052 29.2374 471.421 26.1329C466.79 23.0284 460.988 21.4253 454.016 21.3235C447.043 21.2217 441.241 22.7231 436.61 25.8276C431.979 28.9321 428.493 33.3343 426.152 39.0344C423.861 44.7344 422.716 51.4014 422.716 59.0354C422.716 66.6694 423.861 73.2855 426.152 78.8838C428.493 84.482 431.979 88.8334 436.61 91.9379C441.241 95.0424 447.043 96.6455 454.016 96.7473ZM530.938 114V4.07071H577.352C578.421 4.07071 579.846 4.1216 581.627 4.22339C583.459 4.27428 585.088 4.42697 586.513 4.68143C593.078 5.6993 598.447 7.86226 602.621 11.1703C606.845 14.4784 609.949 18.6516 611.934 23.6901C613.919 28.6776 614.911 34.2504 614.911 40.4085C614.911 49.6202 612.621 57.5086 608.041 64.0738C603.46 70.5882 596.284 74.6087 586.513 76.1355L577.352 76.7463H551.702V114H530.938ZM592.925 114L571.245 69.265L592.62 65.1426L616.438 114H592.925ZM551.702 57.3559H576.436C577.505 57.3559 578.675 57.305 579.948 57.2033C581.22 57.1015 582.391 56.8979 583.459 56.5925C586.258 55.8291 588.421 54.5568 589.948 52.7755C591.475 50.9434 592.518 48.9331 593.078 46.7447C593.689 44.5054 593.994 42.3933 593.994 40.4085C593.994 38.4236 593.689 36.337 593.078 34.1486C592.518 31.9093 591.475 29.899 589.948 28.1178C588.421 26.2856 586.258 24.9878 583.459 24.2244C582.391 23.9191 581.22 23.7155 579.948 23.6137C578.675 23.5119 577.505 23.461 576.436 23.461H551.702V57.3559ZM641.618 114V4.07071H713.378V23.461H662.383V46.9737H704.217V66.364H662.383V94.6098H713.378V114H641.618Z"/>
</mask>
<path d="M1.68756 114V4.07071H73.447V23.461H22.452V46.9737H64.2862V66.364H22.452V94.6098H73.447V114H1.68756ZM90.9813 114L127.93 58.4247L92.0501 4.07071H117.548L140.908 40.7138L163.962 4.07071H189.612L153.733 58.4247L190.529 114H165.031L140.908 76.1355L116.632 114H90.9813ZM211.121 114V4.07071H257.536C258.605 4.07071 260.03 4.1216 261.811 4.22339C263.643 4.27428 265.272 4.42697 266.697 4.68143C273.262 5.6993 278.631 7.86226 282.804 11.1703C287.028 14.4784 290.133 18.6516 292.118 23.6901C294.103 28.6776 295.095 34.2504 295.095 40.4085C295.095 46.5666 294.077 52.1648 292.041 57.2033C290.057 62.1908 286.952 66.3386 282.728 69.6467C278.555 72.9547 273.211 75.1177 266.697 76.1355C265.272 76.3391 263.643 76.4918 261.811 76.5936C259.979 76.6954 258.554 76.7463 257.536 76.7463H231.886V114H211.121ZM231.886 57.3559H256.62C257.689 57.3559 258.859 57.305 260.131 57.2033C261.404 57.1015 262.574 56.8979 263.643 56.5925C266.442 55.8291 268.605 54.5568 270.132 52.7755C271.659 50.9434 272.702 48.9331 273.262 46.7447C273.873 44.5054 274.178 42.3933 274.178 40.4085C274.178 38.4236 273.873 36.337 273.262 34.1486C272.702 31.9093 271.659 29.899 270.132 28.1178C268.605 26.2856 266.442 24.9878 263.643 24.2244C262.574 23.9191 261.404 23.7155 260.131 23.6137C258.859 23.5119 257.689 23.461 256.62 23.461H231.886V57.3559ZM320.347 114V4.07071H341.111V94.6098H388.442V114H320.347ZM454.016 116.29C443.023 116.29 433.531 113.898 425.541 109.114C417.601 104.33 411.469 97.6379 407.143 89.037C402.868 80.436 400.73 70.4355 400.73 59.0354C400.73 47.6353 402.868 37.6348 407.143 29.0338C411.469 20.4329 417.601 13.7404 425.541 8.95646C433.531 4.1725 443.023 1.78052 454.016 1.78052C465.009 1.78052 474.475 4.1725 482.414 8.95646C490.404 13.7404 496.537 20.4329 500.812 29.0338C505.138 37.6348 507.301 47.6353 507.301 59.0354C507.301 70.4355 505.138 80.436 500.812 89.037C496.537 97.6379 490.404 104.33 482.414 109.114C474.475 113.898 465.009 116.29 454.016 116.29ZM454.016 96.7473C460.988 96.8491 466.79 95.3477 471.421 92.2432C476.052 89.1388 479.513 84.7365 481.803 79.0365C484.144 73.3364 485.315 66.6694 485.315 59.0354C485.315 51.4014 484.144 44.7853 481.803 39.187C479.513 33.5888 476.052 29.2374 471.421 26.1329C466.79 23.0284 460.988 21.4253 454.016 21.3235C447.043 21.2217 441.241 22.7231 436.61 25.8276C431.979 28.9321 428.493 33.3343 426.152 39.0344C423.861 44.7344 422.716 51.4014 422.716 59.0354C422.716 66.6694 423.861 73.2855 426.152 78.8838C428.493 84.482 431.979 88.8334 436.61 91.9379C441.241 95.0424 447.043 96.6455 454.016 96.7473ZM530.938 114V4.07071H577.352C578.421 4.07071 579.846 4.1216 581.627 4.22339C583.459 4.27428 585.088 4.42697 586.513 4.68143C593.078 5.6993 598.447 7.86226 602.621 11.1703C606.845 14.4784 609.949 18.6516 611.934 23.6901C613.919 28.6776 614.911 34.2504 614.911 40.4085C614.911 49.6202 612.621 57.5086 608.041 64.0738C603.46 70.5882 596.284 74.6087 586.513 76.1355L577.352 76.7463H551.702V114H530.938ZM592.925 114L571.245 69.265L592.62 65.1426L616.438 114H592.925ZM551.702 57.3559H576.436C577.505 57.3559 578.675 57.305 579.948 57.2033C581.22 57.1015 582.391 56.8979 583.459 56.5925C586.258 55.8291 588.421 54.5568 589.948 52.7755C591.475 50.9434 592.518 48.9331 593.078 46.7447C593.689 44.5054 593.994 42.3933 593.994 40.4085C593.994 38.4236 593.689 36.337 593.078 34.1486C592.518 31.9093 591.475 29.899 589.948 28.1178C588.421 26.2856 586.258 24.9878 583.459 24.2244C582.391 23.9191 581.22 23.7155 579.948 23.6137C578.675 23.5119 577.505 23.461 576.436 23.461H551.702V57.3559ZM641.618 114V4.07071H713.378V23.461H662.383V46.9737H704.217V66.364H662.383V94.6098H713.378V114H641.618Z" stroke="#FFA509" stroke-width="2.62418" mask="url(#path-1-outside-1_715_469)"/>
</svg>
